<?xml version="1.0" encoding="utf-8"?>
<!-- Generator: Adobe Illustrator 19.2.1, SVG Export Plug-In . SVG Version: 6.00 Build 0)  -->
<svg version="1.0" id="Layer_1" xmlns="http://www.w3.org/2000/svg" xmlns:xlink="http://www.w3.org/1999/xlink" x="0px" y="0px"
	 viewBox="0 0 576 576" enable-background="new 0 0 576 576" xml:space="preserve">
<g>
	<g>
		<g>
			<path fill="#F47A20" d="M241.2,223.8v5.2v44.7v5.2l4.5,2.6l38.7,22.4l4.5,2.6l4.5-2.6l38.7-22.4l4.5-2.6v-5.2v-44.7v-5.2
				l-4.5-2.6l-38.7-22.4l-4.5-2.6l-4.5,2.6l-38.7,22.4L241.2,223.8z M250.1,228.9l38.7-22.4l38.7,22.4v44.7L288.9,296l-38.7-22.4
				V228.9z"/>
			<path fill="#F47A20" d="M288.9,222.4l-4.5,2.6l-16.1,9.3l-4.5,2.6v5.2v18.6v5.2l4.5,2.6l16.1,9.3l4.5,2.6l4.5-2.6l16.1-9.3
				l4.5-2.6v-5.2V242v-5.2l-4.5-2.6l-16.1-9.3L288.9,222.4z M272.8,242l16.1-9.3L305,242v18.6l-16.1,9.3l-16.1-9.3V242z"/>
		</g>
		<polygon fill="#FAAB71" points="288.9,196.2 288.9,206.5 327.6,228.9 327.6,273.7 288.9,296 288.9,306.4 336.6,278.8 336.6,223.8 
					"/>
		<polygon fill="#FAAB71" points="288.9,222.4 288.9,232.7 305,242 305,260.6 288.9,269.9 288.9,280.2 313.9,265.8 313.9,236.8 		
			"/>
		<polygon fill="#FAAB71" points="288.9,206.5 288.9,222.4 263.8,236.8 263.8,265.8 288.9,280.2 288.9,296 250.1,273.7 250.1,228.9 
					"/>
	</g>
</g>
</svg>
