<svg id="0c547b5f-3524-4f6f-b8f4-50c37d3483c6" data-name="Layer 1" xmlns="http://www.w3.org/2000/svg" viewBox="0 0 288 174.63"><defs><style>.d1864135-82c8-4c7e-bf3b-8298498cb074{fill:#f47a20;}.b6d7f1ef-e7ac-4b7a-bae3-ed5f18da6c9a{fill:#faab71;}.\36 3c85b73-32e5-442a-850e-f3b59101837a{fill:#bcbec0;}</style></defs><title>ScottJones_logo</title><path class="d1864135-82c8-4c7e-bf3b-8298498cb074" d="M241.17,223.75v55.07l4.47,2.58,38.75,22.37,4.47,2.58,4.47-2.58,38.75-22.37,4.47-2.58V223.75l-4.47-2.58L293.34,198.8l-4.47-2.58-4.47,2.58-38.75,22.37Zm8.95,5.17,38.75-22.37,38.75,22.37v44.74L288.87,296l-38.75-22.37V228.92Z" transform="translate(-144 -196.22)"/><path class="d1864135-82c8-4c7e-bf3b-8298498cb074" d="M288.87,222.36l-4.47,2.58-16.11,9.3-4.47,2.58v28.93l4.47,2.58,16.11,9.3,4.47,2.58,4.47-2.58,16.11-9.3,4.47-2.58V236.82l-4.47-2.58-16.11-9.3ZM272.76,242l16.11-9.3L305,242v18.6l-16.11,9.3-16.11-9.3V242Z" transform="translate(-144 -196.22)"/><polygon class="b6d7f1ef-e7ac-4b7a-bae3-ed5f18da6c9a" points="144.87 0 144.87 10.33 183.61 32.7 183.61 77.44 144.87 99.81 144.87 110.15 192.56 82.61 192.56 27.54 144.87 0"/><polygon class="b6d7f1ef-e7ac-4b7a-bae3-ed5f18da6c9a" points="144.87 26.14 144.87 36.48 160.97 45.77 160.97 64.37 144.87 73.67 144.87 84 169.92 69.54 169.92 40.61 144.87 26.14"/><polygon class="b6d7f1ef-e7ac-4b7a-bae3-ed5f18da6c9a" points="144.87 10.33 144.87 26.14 119.81 40.61 119.81 69.54 144.87 84 144.87 99.81 106.12 77.44 106.12 32.7 144.87 10.33"/><path class="b6d7f1ef-e7ac-4b7a-bae3-ed5f18da6c9a" d="M299.18,338.07a6.61,6.61,0,0,1-.54,2.66,6.89,6.89,0,0,1-3.66,3.65,6.7,6.7,0,0,1-2.67.54,6.83,6.83,0,0,1-1.79-.24,6.55,6.55,0,0,1-1.65-.69v7.37a14.15,14.15,0,0,0,3.45.43,13.38,13.38,0,0,0,5.35-1.08,13.69,13.69,0,0,0,7.29-7.29,13.38,13.38,0,0,0,1.08-5.35V317.46h-6.85v20.61Z" transform="translate(-144 -196.22)"/><path class="b6d7f1ef-e7ac-4b7a-bae3-ed5f18da6c9a" d="M342.33,325.81a17.73,17.73,0,0,0-10.6-8.15,17.8,17.8,0,0,0-9.42,0,18.09,18.09,0,0,0-4.24,1.78,17.58,17.58,0,0,0-3.6,2.78,18.08,18.08,0,0,0-2.79,3.59,17.58,17.58,0,0,0-2.43,9,17.3,17.3,0,0,0,.63,4.7,17.87,17.87,0,0,0,12.42,12.42A17.65,17.65,0,0,0,336,350.1a18.09,18.09,0,0,0,3.59-2.79,17.58,17.58,0,0,0,2.78-3.6,18.14,18.14,0,0,0,1.78-4.24,17.8,17.8,0,0,0,0-9.42A17.86,17.86,0,0,0,342.33,325.81ZM337.07,339a11.25,11.25,0,0,1-2.33,3.46,10.92,10.92,0,0,1-3.47,2.35,10.94,10.94,0,0,1-8.51,0,11.06,11.06,0,0,1-5.82-5.8,10.44,10.44,0,0,1-.86-4.23,10.61,10.61,0,0,1,.86-4.25,10.93,10.93,0,0,1,2.35-3.47,11.22,11.22,0,0,1,3.47-2.33,10.94,10.94,0,0,1,8.51,0,10.88,10.88,0,0,1,5.8,5.8,10.61,10.61,0,0,1,.86,4.25A10.44,10.44,0,0,1,337.07,339Z" transform="translate(-144 -196.22)"/><polygon class="b6d7f1ef-e7ac-4b7a-bae3-ed5f18da6c9a" points="224.94 143.86 211.7 121.24 204.35 121.24 204.35 155.57 211.22 155.57 211.22 132.97 224.46 155.57 231.81 155.57 231.81 121.24 224.94 121.24 224.94 143.86"/><polygon class="b6d7f1ef-e7ac-4b7a-bae3-ed5f18da6c9a" points="235.49 155.57 259.02 155.57 259.02 148.7 242.36 148.7 242.36 141.85 253.64 141.85 253.64 134.98 242.36 134.98 242.36 128.11 259.02 128.11 259.02 121.24 235.49 121.24 235.49 155.57"/><path class="b6d7f1ef-e7ac-4b7a-bae3-ed5f18da6c9a" d="M431.2,337.48a10.24,10.24,0,0,0-5.48-5.48,10.11,10.11,0,0,0-4-.8h-6.87a3.39,3.39,0,0,1-2.43-1,3.36,3.36,0,0,1-.73-1.1,3.49,3.49,0,0,1-.26-1.35,3.39,3.39,0,0,1,3.42-3.42h15.75v-6.87H414.84a9.89,9.89,0,0,0-4,.81,10.45,10.45,0,0,0-5.48,5.48,10.25,10.25,0,0,0,0,8,10.42,10.42,0,0,0,5.48,5.49,9.89,9.89,0,0,0,4,.81h6.87a3.42,3.42,0,1,1,0,6.85H406.46v6.87h15.25a10,10,0,0,0,4-.81,10.48,10.48,0,0,0,3.28-2.21,10.37,10.37,0,0,0,2.2-3.27A10.39,10.39,0,0,0,431.2,337.48Z" transform="translate(-144 -196.22)"/><path class="d1864135-82c8-4c7e-bf3b-8298498cb074" d="M168.45,334.2a10.31,10.31,0,0,0-3.28-2.2,10.11,10.11,0,0,0-4-.8h-6.87a3.39,3.39,0,0,1-2.43-1,3.36,3.36,0,0,1-.73-1.1,3.49,3.49,0,0,1-.26-1.35,3.39,3.39,0,0,1,3.42-3.42H170v-6.87H154.29a9.89,9.89,0,0,0-4,.81,10.45,10.45,0,0,0-5.48,5.48,10.25,10.25,0,0,0,0,8,10.42,10.42,0,0,0,5.48,5.49,9.89,9.89,0,0,0,4,.81h6.87a3.42,3.42,0,1,1,0,6.85H145.92v6.87h15.25a10,10,0,0,0,4-.81,10.48,10.48,0,0,0,3.28-2.21,10.37,10.37,0,0,0,2.2-3.27,10.39,10.39,0,0,0,0-8A10.31,10.31,0,0,0,168.45,334.2Z" transform="translate(-144 -196.22)"/><path class="d1864135-82c8-4c7e-bf3b-8298498cb074" d="M198.15,342.94a10.3,10.3,0,0,1-2.89,1.84,10.93,10.93,0,0,1-4.31.87,10.58,10.58,0,0,1-4.26-.86,11.06,11.06,0,0,1-5.82-5.8,10.44,10.44,0,0,1-.86-4.23,10.61,10.61,0,0,1,.86-4.25,10.93,10.93,0,0,1,2.35-3.47,11.22,11.22,0,0,1,3.47-2.33,10.6,10.6,0,0,1,4.26-.86,10.93,10.93,0,0,1,4.31.87,10.3,10.3,0,0,1,2.89,1.85,19.78,19.78,0,0,1,1.08-2.12,20.82,20.82,0,0,1,2.72-3.61,17,17,0,0,0-4.85-2.77A17.72,17.72,0,0,0,191,317a17.37,17.37,0,0,0-4.7.63A17.85,17.85,0,0,0,173.83,330a17.8,17.8,0,0,0,0,9.42,17.87,17.87,0,0,0,12.42,12.42,17.34,17.34,0,0,0,4.7.63,17.49,17.49,0,0,0,11-3.85,20.67,20.67,0,0,1-2.71-3.61A20.23,20.23,0,0,1,198.15,342.94Z" transform="translate(-144 -196.22)"/><path class="d1864135-82c8-4c7e-bf3b-8298498cb074" d="M232.2,325.81a17.73,17.73,0,0,0-10.6-8.15,17.8,17.8,0,0,0-9.42,0,18.09,18.09,0,0,0-4.24,1.78,17.58,17.58,0,0,0-3.6,2.78,18.08,18.08,0,0,0-2.79,3.59,17.58,17.58,0,0,0-2.43,9,17.3,17.3,0,0,0,.63,4.7,17.87,17.87,0,0,0,12.42,12.42,17.65,17.65,0,0,0,13.66-1.79,18.09,18.09,0,0,0,3.59-2.79,17.58,17.58,0,0,0,2.78-3.6,18.14,18.14,0,0,0,1.78-4.24,17.8,17.8,0,0,0,0-9.42A17.86,17.86,0,0,0,232.2,325.81ZM226.93,339a11.25,11.25,0,0,1-2.33,3.46,10.92,10.92,0,0,1-3.47,2.35,10.94,10.94,0,0,1-8.51,0,11.06,11.06,0,0,1-5.82-5.8,10.44,10.44,0,0,1-.86-4.23,10.61,10.61,0,0,1,.86-4.25,10.93,10.93,0,0,1,2.35-3.47,11.22,11.22,0,0,1,3.47-2.33,10.94,10.94,0,0,1,8.51,0,10.88,10.88,0,0,1,5.8,5.8,10.61,10.61,0,0,1,.86,4.25A10.44,10.44,0,0,1,226.93,339Z" transform="translate(-144 -196.22)"/><polygon class="d1864135-82c8-4c7e-bf3b-8298498cb074" points="117.41 121.24 90.39 121.24 90.39 128.04 90.39 128.11 90.43 128.11 100.71 128.11 100.71 155.57 107.55 155.57 107.55 128.11 117.41 128.11 117.85 128.11 127.73 128.11 127.73 155.57 134.57 155.57 134.57 128.11 144.87 128.11 144.87 121.24 117.85 121.24 117.41 121.24"/><path class="63c85b73-32e5-442a-850e-f3b59101837a" d="M237.13,359.62h2.41l-3.22,11.12h-2.55L231.61,363l-2.21,7.76h-2.55l-3.15-11.12h2.39l2.13,8.59,2.25-8.59H233l2.12,8.51Z" transform="translate(-144 -196.22)"/><path class="63c85b73-32e5-442a-850e-f3b59101837a" d="M247.35,359.58v1.72h-4.17v2.92h3.7v1.72h-3.7V369h4.17v1.72h-6.42V359.58h6.42Z" transform="translate(-144 -196.22)"/><path class="63c85b73-32e5-442a-850e-f3b59101837a" d="M249.65,359.62h4.51a4,4,0,0,1,2.68.83,2.64,2.64,0,0,1,1,2.1,2.54,2.54,0,0,1-2.17,2.5,2.72,2.72,0,0,1,1.76.95,2.75,2.75,0,0,1,.66,1.82,2.59,2.59,0,0,1-1,2.11,4.11,4.11,0,0,1-2.68.8h-4.76V359.62Zm2.25,1.72v2.88h2a1.77,1.77,0,0,0,1.19-.37,1.32,1.32,0,0,0,.44-1.06,1.34,1.34,0,0,0-.44-1.07,1.74,1.74,0,0,0-1.19-.38h-2Zm0,7.68h2.26a1.74,1.74,0,0,0,1.2-.41,1.62,1.62,0,0,0,0-2.25,1.75,1.75,0,0,0-1.21-.42h-2.25V369Z" transform="translate(-144 -196.22)"/><path class="63c85b73-32e5-442a-850e-f3b59101837a" d="M268.55,359.62a6.1,6.1,0,0,1,4.32,1.53,5.26,5.26,0,0,1,1.65,4,5.2,5.2,0,0,1-1.65,4,6.14,6.14,0,0,1-4.32,1.51h-3.78V359.62h3.78ZM267,369h1.53a3.55,3.55,0,0,0,2.72-1,4.53,4.53,0,0,0,0-5.61,3.55,3.55,0,0,0-2.72-1H267V369Z" transform="translate(-144 -196.22)"/><path class="63c85b73-32e5-442a-850e-f3b59101837a" d="M282.71,359.58v1.72h-4.17v2.92h3.7v1.72h-3.7V369h4.17v1.72h-6.42V359.58h6.42Z" transform="translate(-144 -196.22)"/><path class="63c85b73-32e5-442a-850e-f3b59101837a" d="M288.1,370.73L284,359.62h2.37l3,8.87,3-8.87h2.39l-4.08,11.12H288.1Z" transform="translate(-144 -196.22)"/><path class="63c85b73-32e5-442a-850e-f3b59101837a" d="M302.72,359.58v1.72h-4.17v2.92h3.7v1.72h-3.7V369h4.17v1.72H296.3V359.58h6.42Z" transform="translate(-144 -196.22)"/><path class="63c85b73-32e5-442a-850e-f3b59101837a" d="M305,359.62h2.25V369h3.57v1.7H305V359.62Z" transform="translate(-144 -196.22)"/><path class="63c85b73-32e5-442a-850e-f3b59101837a" d="M317.4,370.85a5.56,5.56,0,0,1-4-1.61,5.9,5.9,0,0,1,0-8.17,5.88,5.88,0,0,1,8.08,0,5.91,5.91,0,0,1,0,8.17A5.55,5.55,0,0,1,317.4,370.85Zm2.45-3a4.2,4.2,0,0,0,0-5.3,3.54,3.54,0,0,0-4.91,0,4.16,4.16,0,0,0,0,5.29A3.53,3.53,0,0,0,319.86,367.8Z" transform="translate(-144 -196.22)"/><path class="63c85b73-32e5-442a-850e-f3b59101837a" d="M332.12,365.16a2.9,2.9,0,0,1-1.25.84,5.41,5.41,0,0,1-1.92.31H327.1v4.43h-2.25V359.62H329a4.22,4.22,0,0,1,3,1,3,3,0,0,1,1,2.27A3.48,3.48,0,0,1,332.12,365.16Zm-5-.57H329a1.77,1.77,0,0,0,1.29-.44,1.8,1.8,0,0,0,0-2.37,1.77,1.77,0,0,0-1.29-.44H327.1v3.25Z" transform="translate(-144 -196.22)"/><path class="63c85b73-32e5-442a-850e-f3b59101837a" d="M341.07,359.58v1.72H336.9v2.92h3.7v1.72h-3.7V369h4.17v1.72h-6.42V359.58h6.42Z" transform="translate(-144 -196.22)"/><path class="63c85b73-32e5-442a-850e-f3b59101837a" d="M345.61,366.31v4.43h-2.25V359.62h4.09a4.22,4.22,0,0,1,3,1,3.11,3.11,0,0,1,1,2.38,3.35,3.35,0,0,1-.64,2,3.29,3.29,0,0,1-2,1.24l2.84,4.57H349l-2.66-4.43h-0.73Zm0-5v3.25h1.85a1.76,1.76,0,0,0,1.29-.44,1.8,1.8,0,0,0,0-2.37,1.76,1.76,0,0,0-1.29-.44h-1.85Z" transform="translate(-144 -196.22)"/></svg>